<svg width="15" height="9" viewBox="0 0 15 9" fill="none" xmlns="http://www.w3.org/2000/svg">
<path d="M14.3401 7.05556L14.3402 7.05566C14.5533 7.2669 14.5532 7.60737 14.3403 7.81831L14.3401 7.81848C14.1249 8.03187 13.774 8.03185 13.5588 7.81849L13.5588 7.81848L7.85195 2.15969L7.49989 1.8106L7.14784 2.15969L1.44124 7.81824C1.44121 7.81827 1.44119 7.81829 1.44116 7.81832C1.22573 8.03176 0.874899 8.03163 0.659761 7.81831L0.659689 7.81824C0.44681 7.60725 0.446706 7.26666 0.659761 7.05541L0.659764 7.0554L7.10934 0.660263C7.10937 0.660233 7.1094 0.660204 7.10942 0.660175C7.21675 0.553856 7.35699 0.500254 7.49986 0.500254C7.6428 0.500254 7.78325 0.554011 7.89052 0.660337C7.89053 0.660348 7.89055 0.660359 7.89056 0.66037L14.3401 7.05556Z" fill="black" stroke="black"/>
</svg>
