<svg width="33" height="33" viewBox="0 0 33 33" fill="none" xmlns="http://www.w3.org/2000/svg">
<g filter="url(#filter0_d_265_706)">
<circle cx="16.5" cy="16.5" r="12.5" fill="#EE1C25"/>
<path d="M12.2798 11.9385L14.9248 20.0791L8 15.0479H16.5595L9.63472 20.0791L12.2798 11.9385Z" fill="#FFFF00"/>
<path d="M20.3668 10.5582L20.1163 13.4004L18.6484 10.9538L21.274 12.0703L18.4936 12.7104L20.3668 10.5582Z" fill="#FFFF00"/>
<path d="M23.8564 13.8941L22.5226 16.4163L22.1191 13.5918L24.1057 15.6397L21.2948 15.1506L23.8564 13.8941Z" fill="#FFFF00"/>
<path d="M24.1889 18.9241L21.9423 20.6828L22.7261 17.9394L23.7045 20.6196L21.3376 19.0264L24.1889 18.9241Z" fill="#FFFF00"/>
<path d="M20.309 21.0346L20.1766 23.8847L18.6084 21.5011L21.2781 22.5077L18.5266 23.2625L20.309 21.0346Z" fill="#FFFF00"/>
<rect x="4.5" y="4.5" width="24" height="24" rx="12" stroke="#CFCFCF" shape-rendering="crispEdges"/>
</g>
<defs>
<filter id="filter0_d_265_706" x="0" y="0" width="33" height="33" filterUnits="userSpaceOnUse" color-interpolation-filters="sRGB">
<feFlood flood-opacity="0" result="BackgroundImageFix"/>
<feColorMatrix in="SourceAlpha" type="matrix" values="0 0 0 0 0 0 0 0 0 0 0 0 0 0 0 0 0 0 127 0" result="hardAlpha"/>
<feOffset/>
<feGaussianBlur stdDeviation="2"/>
<feComposite in2="hardAlpha" operator="out"/>
<feColorMatrix type="matrix" values="0 0 0 0 0 0 0 0 0 0 0 0 0 0 0 0 0 0 0.1 0"/>
<feBlend mode="normal" in2="BackgroundImageFix" result="effect1_dropShadow_265_706"/>
<feBlend mode="normal" in="SourceGraphic" in2="effect1_dropShadow_265_706" result="shape"/>
</filter>
</defs>
</svg>
