<svg width="33" height="33" viewBox="0 0 33 33" fill="none" xmlns="http://www.w3.org/2000/svg">
<g filter="url(#filter0_d_265_688)">
<path d="M4.77734 20.8477C6.54351 25.6076 11.1253 28.9999 16.4999 28.9999C21.8744 28.9999 26.4562 25.6076 28.2224 20.8477L16.4999 19.7607L4.77734 20.8477Z" fill="#FFDA44"/>
<path d="M16.4999 4C11.1253 4 6.54351 7.39219 4.77734 12.1522L16.4999 13.2391L28.2224 12.1521C26.4562 7.39219 21.8744 4 16.4999 4Z" fill="black"/>
<path d="M4.77749 12.1523C4.27505 13.5065 4 14.9711 4 16.5001C4 18.0292 4.27505 19.4938 4.77749 20.8479H28.2226C28.725 19.4938 29 18.0292 29 16.5001C29 14.9711 28.725 13.5065 28.2225 12.1523H4.77749Z" fill="#D80027"/>
<rect x="4.5" y="4.5" width="24" height="24" rx="12" stroke="#CFCFCF" shape-rendering="crispEdges"/>
</g>
<defs>
<filter id="filter0_d_265_688" x="0" y="0" width="33" height="33" filterUnits="userSpaceOnUse" color-interpolation-filters="sRGB">
<feFlood flood-opacity="0" result="BackgroundImageFix"/>
<feColorMatrix in="SourceAlpha" type="matrix" values="0 0 0 0 0 0 0 0 0 0 0 0 0 0 0 0 0 0 127 0" result="hardAlpha"/>
<feOffset/>
<feGaussianBlur stdDeviation="2"/>
<feComposite in2="hardAlpha" operator="out"/>
<feColorMatrix type="matrix" values="0 0 0 0 0 0 0 0 0 0 0 0 0 0 0 0 0 0 0.1 0"/>
<feBlend mode="normal" in2="BackgroundImageFix" result="effect1_dropShadow_265_688"/>
<feBlend mode="normal" in="SourceGraphic" in2="effect1_dropShadow_265_688" result="shape"/>
</filter>
</defs>
</svg>
