<svg width="33" height="33" viewBox="0 0 33 33" fill="none" xmlns="http://www.w3.org/2000/svg">
<g filter="url(#filter0_d_265_660)">
<g clip-path="url(#clip0_265_660)">
<path d="M16.5 29C23.4036 29 29 23.4036 29 16.5C29 9.59644 23.4036 4 16.5 4C9.59644 4 4 9.59644 4 16.5C4 23.4036 9.59644 29 16.5 29Z" fill="white"/>
<path d="M29.0001 16.4999C29.0001 11.1253 25.6079 6.54351 20.8479 4.77734V28.2224C25.6079 26.4562 29.0001 21.8744 29.0001 16.4999Z" fill="#D80027"/>
<path d="M4 16.4999C4 21.8744 7.39219 26.4562 12.1522 28.2224V4.77734C7.39219 6.54351 4 11.1253 4 16.4999Z" fill="#6DA544"/>
</g>
<rect x="4.5" y="4.5" width="24" height="24" rx="12" stroke="#CFCFCF" shape-rendering="crispEdges"/>
</g>
<defs>
<filter id="filter0_d_265_660" x="0" y="0" width="33" height="33" filterUnits="userSpaceOnUse" color-interpolation-filters="sRGB">
<feFlood flood-opacity="0" result="BackgroundImageFix"/>
<feColorMatrix in="SourceAlpha" type="matrix" values="0 0 0 0 0 0 0 0 0 0 0 0 0 0 0 0 0 0 127 0" result="hardAlpha"/>
<feOffset/>
<feGaussianBlur stdDeviation="2"/>
<feComposite in2="hardAlpha" operator="out"/>
<feColorMatrix type="matrix" values="0 0 0 0 0 0 0 0 0 0 0 0 0 0 0 0 0 0 0.1 0"/>
<feBlend mode="normal" in2="BackgroundImageFix" result="effect1_dropShadow_265_660"/>
<feBlend mode="normal" in="SourceGraphic" in2="effect1_dropShadow_265_660" result="shape"/>
</filter>
<clipPath id="clip0_265_660">
<rect x="4" y="4" width="25" height="25" rx="12.5" fill="white"/>
</clipPath>
</defs>
</svg>
