<svg width="33" height="33" viewBox="0 0 33 33" fill="none" xmlns="http://www.w3.org/2000/svg">
<g filter="url(#filter0_d_265_668)">
<path d="M28.22 20.8504C29.26 18.0436 29.26 14.9572 28.22 12.1504H4.77999C3.74 14.9572 3.74 18.0436 4.77999 20.8504L16.5 21.9304L28.22 20.8504Z" fill="#0052B4"/>
<path d="M16.5 28.9996C19.0519 28.9999 21.5427 28.2191 23.6379 26.7622C25.733 25.3052 27.332 23.242 28.22 20.8496H4.78003C5.66809 23.242 7.26709 25.3052 9.3622 26.7622C11.4573 28.2191 13.9481 28.9999 16.5 28.9996Z" fill="#D80027"/>
<path d="M16.5 4C13.9495 4.00035 11.4603 4.78152 9.36686 6.2385C7.27346 7.69548 5.67629 9.75842 4.79004 12.15H28.21C27.3238 9.75842 25.7266 7.69548 23.6332 6.2385C21.5398 4.78152 19.0505 4.00035 16.5 4V4Z" fill="white"/>
<rect x="4.5" y="4.5" width="24" height="24" rx="12" stroke="#CFCFCF" shape-rendering="crispEdges"/>
</g>
<defs>
<filter id="filter0_d_265_668" x="0" y="0" width="33" height="33" filterUnits="userSpaceOnUse" color-interpolation-filters="sRGB">
<feFlood flood-opacity="0" result="BackgroundImageFix"/>
<feColorMatrix in="SourceAlpha" type="matrix" values="0 0 0 0 0 0 0 0 0 0 0 0 0 0 0 0 0 0 127 0" result="hardAlpha"/>
<feOffset/>
<feGaussianBlur stdDeviation="2"/>
<feComposite in2="hardAlpha" operator="out"/>
<feColorMatrix type="matrix" values="0 0 0 0 0 0 0 0 0 0 0 0 0 0 0 0 0 0 0.1 0"/>
<feBlend mode="normal" in2="BackgroundImageFix" result="effect1_dropShadow_265_668"/>
<feBlend mode="normal" in="SourceGraphic" in2="effect1_dropShadow_265_668" result="shape"/>
</filter>
</defs>
</svg>
